<svg width="758" height="507" viewBox="0 0 758 507" fill="none" xmlns="http://www.w3.org/2000/svg">
<path d="M1 214.388H712.762" stroke="#263238" stroke-linecap="round" stroke-linejoin="round"/>
<path d="M197.458 1H603.97C608.024 1 611.912 2.28983 614.779 4.58576C617.646 6.88168 619.256 9.99563 619.256 13.2426V240.828H182.171V13.2275C182.176 9.98319 183.788 6.87312 186.655 4.58045C189.521 2.28777 193.406 0.999998 197.458 1Z" fill="#263238" stroke="#263238" stroke-linecap="round" stroke-linejoin="round"/>
<path d="M684.799 346.845H116.61L182.171 240.828H619.238L684.799 346.845Z" fill="white" stroke="#263238" stroke-linecap="round" stroke-linejoin="round"/>
<path d="M592.777 19.9805H208.65V221.832H592.777V19.9805Z" fill="#01C38E" stroke="#263238" stroke-linecap="round" stroke-linejoin="round"/>
<path d="M315.372 162.786C336.575 145.806 336.575 118.276 315.372 101.295C294.17 84.3151 259.793 84.3151 238.59 101.295C217.388 118.276 217.388 145.806 238.59 162.786C259.793 179.766 294.17 179.766 315.372 162.786Z" fill="#263238"/>
<path d="M440.845 162.784C462.048 145.803 462.048 118.273 440.845 101.293C419.642 84.3124 385.266 84.3124 364.063 101.293C342.86 118.273 342.86 145.803 364.063 162.784C385.266 179.764 419.642 179.764 440.845 162.784Z" fill="#263238"/>
<path d="M540.257 174.366C569.46 168.915 587.616 145.538 580.809 122.151C574.003 98.764 544.812 84.2241 515.609 89.675C486.407 95.1259 468.251 118.503 475.058 141.89C481.864 165.277 511.055 179.817 540.257 174.366Z" fill="#263238"/>
<path d="M239.675 120.959C239.675 120.959 263.601 68.6199 277.667 68.6199C291.733 68.6199 316.504 120.342 316.504 120.342L312.316 120.643C312.316 120.643 287.996 75.3127 280.784 72.5152C273.573 69.7178 260.258 86.2016 243.919 120.899L239.675 120.959Z" fill="white" stroke="#263238" stroke-linecap="round" stroke-linejoin="round"/>
<path d="M242.098 117.906H314.006C316.158 117.906 318.222 118.591 319.743 119.809C321.264 121.027 322.119 122.68 322.119 124.403V155.295C322.119 156.676 321.435 157.999 320.216 158.975C318.997 159.951 317.345 160.499 315.621 160.499H240.501C238.778 160.499 237.125 159.951 235.907 158.975C234.688 157.999 234.003 156.676 234.003 155.295V124.418C234.001 123.565 234.208 122.72 234.614 121.931C235.019 121.142 235.615 120.424 236.366 119.82C237.118 119.215 238.011 118.735 238.994 118.406C239.978 118.078 241.032 117.908 242.098 117.906Z" fill="white" stroke="#263238" stroke-linecap="round" stroke-linejoin="round"/>
<path d="M234.736 140.737H314.513" stroke="#263238" stroke-linecap="round" stroke-linejoin="round"/>
<path d="M317.95 119.425C317.95 119.425 316.072 121.26 316.072 126.434C316.072 131.607 313.8 158.995 314.194 160.198C314.588 161.402 316.861 160.514 316.861 160.514" fill="white"/>
<path d="M317.95 119.425C317.95 119.425 316.072 121.26 316.072 126.434C316.072 131.607 313.8 158.995 314.194 160.198C314.588 161.402 316.861 160.514 316.861 160.514" stroke="#263238" stroke-linecap="round" stroke-linejoin="round"/>
<path d="M277.667 134.646H271.582V145.595H277.667V134.646Z" fill="white" stroke="#263238" stroke-linecap="round" stroke-linejoin="round"/>
<path d="M354.947 106.611C354.947 106.611 380.318 104.836 410.104 104.836C439.889 104.836 453.88 106.34 454.237 107.844C454.593 109.348 450.199 128.464 450.199 130.224C450.199 131.983 450.199 156.739 449.466 158.213C448.734 159.687 445.41 160.86 443.945 161.146C442.48 161.432 365.238 162.033 363.041 162.033C361.933 161.961 360.9 161.557 360.148 160.902C359.396 160.247 358.981 159.389 358.984 158.499C358.984 156.739 360.092 137.292 358.252 130.224C356.412 123.155 354.947 106.611 354.947 106.611Z" fill="white" stroke="#263238" stroke-linecap="round" stroke-linejoin="round"/>
<path d="M382.234 116.327C382.234 116.327 381.858 93.0599 384.807 85.1037C386.072 81.7365 388.643 78.7796 392.149 76.6621C395.654 74.5446 399.91 73.3765 404.301 73.3274C410 73.6347 415.436 75.3658 419.842 78.277C424.249 81.1882 427.404 85.1328 428.865 89.5555C432.621 101.031 429.597 115.469 429.24 116.943C428.884 118.417 424.827 122.538 424.076 114.582C423.325 106.626 424.827 88.0816 421.879 82.7725C420.193 79.9861 417.404 77.7244 413.946 76.3398C410.488 74.9551 406.555 74.5253 402.761 75.1171C395.023 76.6211 390.986 79.2381 389.521 86.8935C388.056 94.5488 390.986 112.236 389.145 116.056C387.305 119.876 382.891 121.621 382.234 116.327Z" fill="white" stroke="#263238" stroke-linecap="round" stroke-linejoin="round"/>
<path d="M361.933 106.897C361.933 106.897 360.055 122.508 360.055 128.404C360.055 134.3 359.679 138.12 359.679 138.12" fill="white"/>
<path d="M361.933 106.897C361.933 106.897 360.055 122.508 360.055 128.404C360.055 134.3 359.679 138.12 359.679 138.12" stroke="#263238" stroke-linecap="round" stroke-linejoin="round"/>
<path d="M447.964 107.198C447.964 107.198 448.715 122.809 448.715 131.938" stroke="#263238" stroke-linecap="round" stroke-linejoin="round"/>
<path d="M542.803 104.205C542.347 104.208 541.905 104.079 541.56 103.841C541.214 103.603 540.989 103.273 540.925 102.911C537.3 84.7579 532.756 64.7396 530.427 58.2423C526.99 64.3787 519.441 83.9156 513.187 101.678C513.05 102.077 512.721 102.416 512.272 102.62C511.823 102.825 511.291 102.878 510.792 102.768C510.294 102.659 509.871 102.395 509.616 102.035C509.36 101.676 509.294 101.25 509.431 100.851C509.431 100.73 513.45 89.4052 517.807 78.1102C526.878 54.5575 528.587 54.0462 529.939 53.7003C530.276 53.6078 530.636 53.5815 530.989 53.6233C531.342 53.6652 531.677 53.7741 531.967 53.9409C532.962 54.5275 534.333 55.3246 539.742 79.2683C542.352 90.819 544.643 102.31 544.662 102.43C544.708 102.63 544.702 102.835 544.646 103.033C544.589 103.232 544.483 103.419 544.334 103.583C544.185 103.748 543.995 103.886 543.777 103.99C543.56 104.095 543.317 104.162 543.066 104.19C542.979 104.202 542.891 104.207 542.803 104.205Z" fill="white" stroke="#263238" stroke-linecap="round" stroke-linejoin="round"/>
<path d="M481.862 99.1511C481.862 99.1511 519.253 97.3162 532.136 97.7222C545.019 98.1283 567.912 99.2263 567.818 100.414C567.724 101.603 567.273 139.518 565.94 147.038C564.607 154.558 557.902 164.004 552.08 165.733C546.259 167.463 526.69 166.831 516.661 166.5C506.633 166.169 497.6 165.117 493.092 159.988C488.585 154.859 485.355 133.322 485.355 133.322L481.862 99.1511Z" fill="white" stroke="#263238" stroke-linecap="round" stroke-linejoin="round"/>
<path d="M511.572 107.393C511.589 106.803 511.389 106.222 510.997 105.722C510.605 105.223 510.037 104.826 509.366 104.583C508.695 104.34 507.949 104.26 507.221 104.353C506.494 104.447 505.817 104.71 505.274 105.109C504.732 105.509 504.348 106.027 504.171 106.6C503.994 107.173 504.031 107.775 504.278 108.331C504.525 108.887 504.971 109.373 505.56 109.727C506.149 110.082 506.855 110.29 507.591 110.326C508.095 110.35 508.6 110.293 509.075 110.157C509.551 110.022 509.988 109.811 510.36 109.537C510.731 109.263 511.03 108.932 511.238 108.564C511.447 108.195 511.56 107.797 511.572 107.393Z" fill="white" stroke="#263238" stroke-linecap="round" stroke-linejoin="round"/>
<path d="M547.27 109.308C547.616 107.644 546.212 106.072 544.135 105.795C542.058 105.518 540.094 106.643 539.749 108.306C539.404 109.969 540.807 111.542 542.884 111.819C544.961 112.095 546.925 110.971 547.27 109.308Z" fill="white" stroke="#263238" stroke-linecap="round" stroke-linejoin="round"/>
<path d="M488.397 149.535C488.397 149.535 515.253 147.715 564.4 149.701Z" fill="white"/>
<path d="M488.397 149.535C488.397 149.535 515.253 147.715 564.4 149.701" stroke="#263238" stroke-linecap="round" stroke-linejoin="round"/>
<path d="M585.528 25.9363H214.604V50.0905H585.528V25.9363Z" fill="#263238"/>
<path d="M394.497 39.698H431.269" stroke="white" stroke-width="2" stroke-miterlimit="10"/>
<path d="M473.805 39.698H510.577" stroke="white" stroke-width="2" stroke-miterlimit="10"/>
<path d="M573.903 32.2229C573.833 32.1434 573.74 32.0786 573.632 32.034C573.524 31.9895 573.404 31.9666 573.283 31.9673H553.132L552.362 30.1023C552.307 29.9782 552.205 29.8708 552.071 29.7953C551.936 29.7198 551.775 29.6799 551.611 29.6812H546.503C546.298 29.6812 546.103 29.7461 545.958 29.8618C545.814 29.9774 545.733 30.1343 545.733 30.2978C545.73 30.3801 545.748 30.4619 545.786 30.5384C545.823 30.615 545.88 30.6847 545.951 30.7436C546.023 30.8025 546.109 30.8492 546.204 30.8812C546.298 30.9131 546.4 30.9295 546.503 30.9295H551.047L555.968 42.766C556.023 42.8901 556.124 42.9974 556.259 43.0729C556.394 43.1484 556.555 43.1884 556.719 43.1871H557.001C556.726 43.5338 556.577 43.9346 556.569 44.3452C556.538 44.6438 556.584 44.9442 556.705 45.2277C556.827 45.5111 557.02 45.7713 557.273 45.9918C557.527 46.2123 557.834 46.3883 558.177 46.5087C558.52 46.6291 558.89 46.6913 559.264 46.6913C559.638 46.6913 560.008 46.6291 560.35 46.5087C560.693 46.3883 561.001 46.2123 561.254 45.9918C561.507 45.7713 561.701 45.5111 561.822 45.2277C561.943 44.9442 561.99 44.6438 561.959 44.3452C561.96 43.9335 561.81 43.5306 561.527 43.1871H565.283C565.014 43.5351 564.871 43.936 564.87 44.3452C564.838 44.6438 564.885 44.9442 565.006 45.2277C565.127 45.5111 565.321 45.7713 565.574 45.9918C565.827 46.2123 566.135 46.3883 566.478 46.5087C566.82 46.6291 567.19 46.6913 567.564 46.6913C567.939 46.6913 568.309 46.6291 568.651 46.5087C568.994 46.3883 569.301 46.2123 569.555 45.9918C569.808 45.7713 570.001 45.5111 570.123 45.2277C570.244 44.9442 570.291 44.6438 570.259 44.3452C570.251 43.9346 570.102 43.5338 569.827 43.1871H570.428C570.638 43.1871 570.838 43.1205 570.986 43.0021C571.134 42.8836 571.217 42.7229 571.217 42.5554C571.217 42.4732 571.197 42.3917 571.157 42.3159C571.117 42.2401 571.059 42.1715 570.985 42.114C570.912 42.0565 570.824 42.0114 570.729 41.9813C570.633 41.9512 570.531 41.9368 570.428 41.9388H557.282L556.419 39.8633H571.067C571.237 39.8649 571.402 39.8216 571.538 39.74C571.674 39.6584 571.773 39.5431 571.818 39.4121L574.053 32.7644C574.081 32.6709 574.082 32.5736 574.056 32.4797C574.03 32.3859 573.978 32.2981 573.903 32.2229ZM559.254 45.2626C559.027 45.2656 558.804 45.2143 558.613 45.1154C558.422 45.0164 558.272 44.8742 558.183 44.7068C558.093 44.5395 558.068 44.3545 558.11 44.1756C558.152 43.9966 558.259 43.8318 558.419 43.702C558.578 43.5721 558.782 43.4833 559.005 43.4466C559.228 43.41 559.459 43.4272 559.669 43.4962C559.88 43.5652 560.06 43.6828 560.187 43.8339C560.313 43.9851 560.381 44.1631 560.381 44.3452C560.381 44.5859 560.263 44.817 560.052 44.9887C559.841 45.1603 559.555 45.2587 559.254 45.2626ZM567.536 45.2626C567.309 45.2656 567.086 45.2143 566.895 45.1154C566.704 45.0164 566.554 44.8742 566.465 44.7068C566.375 44.5395 566.35 44.3545 566.392 44.1756C566.434 43.9966 566.541 43.8318 566.701 43.702C566.86 43.5721 567.064 43.4833 567.287 43.4466C567.51 43.41 567.741 43.4272 567.951 43.4962C568.162 43.5652 568.342 43.6828 568.469 43.8339C568.595 43.9851 568.663 44.1631 568.663 44.3452C568.666 44.4649 568.638 44.5839 568.583 44.6951C568.527 44.8064 568.445 44.9076 568.34 44.993C568.235 45.0784 568.11 45.1462 567.972 45.1925C567.834 45.2388 567.686 45.2626 567.536 45.2626ZM569.621 38.6149H566.729V33.2306H569.621V38.6149ZM562.259 33.2306H565.17V38.6149H562.259V33.2306ZM560.7 38.6149H557.789V33.2306H560.644L560.7 38.6149ZM553.639 33.2306H556.231V38.6149H555.874L553.639 33.2306ZM571.198 36.4041V33.2306H572.25L571.198 36.4041Z" fill="white"/>
<path d="M579.969 31.8321C579.987 30.9218 579.667 30.0276 579.049 29.2634C578.431 28.4992 577.543 27.8996 576.499 27.5408C575.454 27.1821 574.299 27.0804 573.182 27.2488C572.065 27.4173 571.035 27.8481 570.225 28.4865C569.414 29.125 568.859 29.9421 568.631 30.8339C568.402 31.7258 568.51 32.6519 568.94 33.4945C569.371 34.3371 570.105 35.058 571.049 35.5655C571.993 36.0729 573.104 36.344 574.241 36.3441C575.742 36.3404 577.182 35.8662 578.253 35.0229C579.323 34.1797 579.939 33.0344 579.969 31.8321Z" fill="white"/>
<path d="M571.912 34.6594C571.773 34.5747 571.679 34.4512 571.649 34.3135C571.609 34.1642 571.616 34.0092 571.668 33.8624C571.721 33.7155 571.817 33.5812 571.95 33.4713L574.579 31.4108C574.73 31.3206 574.855 31.2054 574.946 31.0731C575.037 30.9407 575.091 30.7943 575.105 30.6438C575.106 30.5502 575.08 30.4576 575.027 30.3739C574.975 30.2902 574.899 30.2177 574.804 30.1625C574.599 30.039 574.347 29.9753 574.09 29.982H573.79H573.452L573.189 30.0722L572.907 30.2076L572.663 30.3129C572.56 30.3427 572.447 30.3427 572.344 30.3129C572.217 30.289 572.104 30.2305 572.025 30.1474C571.944 30.0606 571.88 29.9642 571.837 29.8617C571.789 29.7598 571.789 29.6477 571.837 29.5458C571.892 29.4293 571.999 29.333 572.137 29.2751C572.836 28.9305 573.646 28.7579 574.466 28.7788C575.106 28.7677 575.725 28.9565 576.194 29.3052C576.404 29.4569 576.571 29.6426 576.684 29.8501C576.798 30.0575 576.855 30.282 576.851 30.5084C576.85 30.8344 576.746 31.155 576.551 31.4409C576.315 31.7841 575.996 32.0859 575.612 32.3282L573.602 33.6066H576.231C576.304 33.6052 576.376 33.6198 576.439 33.649C576.502 33.6782 576.554 33.7208 576.588 33.7721C576.673 33.8857 576.719 34.0156 576.72 34.1481C576.716 34.2898 576.671 34.4289 576.588 34.5541C576.551 34.6034 576.498 34.6443 576.436 34.6732C576.374 34.7021 576.303 34.718 576.231 34.7196H572.475C572.382 34.7429 572.283 34.7496 572.185 34.7392C572.088 34.7288 571.995 34.7016 571.912 34.6594Z" fill="#263238"/>
<path d="M364.205 45.2628H228.426C227.238 45.2628 226.062 45.0752 224.965 44.7107C223.867 44.3462 222.871 43.812 222.032 43.1386C221.193 42.4653 220.528 41.666 220.075 40.7866C219.622 39.9071 219.39 38.9648 219.393 38.0135C219.393 36.0949 220.344 34.2548 222.038 32.8982C223.732 31.5415 226.03 30.7793 228.426 30.7793H364.205C366.601 30.7793 368.899 31.5415 370.593 32.8982C372.287 34.2548 373.238 36.0949 373.238 38.0135C373.241 38.9648 373.009 39.9071 372.556 40.7866C372.103 41.666 371.438 42.4653 370.599 43.1386C369.76 43.812 368.764 44.3462 367.666 44.7107C366.569 45.0752 365.393 45.2628 364.205 45.2628Z" fill="white"/>
<path d="M249.103 189.06H304.691" stroke="#263238" stroke-width="2" stroke-linecap="round" stroke-linejoin="round"/>
<path d="M249.103 197.498H304.691" stroke="#263238" stroke-width="2" stroke-linecap="round" stroke-linejoin="round"/>
<path d="M374.647 189.06H430.254" stroke="#263238" stroke-width="2" stroke-linecap="round" stroke-linejoin="round"/>
<path d="M374.647 197.498H430.254" stroke="#263238" stroke-width="2" stroke-linecap="round" stroke-linejoin="round"/>
<path d="M500.21 189.06H555.799" stroke="#263238" stroke-width="2" stroke-linecap="round" stroke-linejoin="round"/>
<path d="M500.21 197.498H555.799" stroke="#263238" stroke-width="2" stroke-linecap="round" stroke-linejoin="round"/>
<path d="M382.478 274.397L383.229 261.478H360.149L358.609 274.397H382.478Z" fill="#263238" stroke="white" stroke-linecap="round" stroke-linejoin="round"/>
<path d="M430.217 274.397L429.428 261.478H406.329L406.348 274.397H430.217Z" fill="#263238" stroke="white" stroke-linecap="round" stroke-linejoin="round"/>
<path d="M554.522 288.204H579.199L573.414 274.397H549.545L554.522 288.204Z" fill="#263238" stroke="white" stroke-linecap="round" stroke-linejoin="round"/>
<path d="M358.609 274.397L360.149 261.478H337.049L334.758 274.397H358.609Z" fill="#263238" stroke="white" stroke-linecap="round" stroke-linejoin="round"/>
<path d="M310.889 274.397L313.95 261.478H290.869L287.019 274.397H310.889Z" fill="#263238" stroke="white" stroke-linecap="round" stroke-linejoin="round"/>
<path d="M525.676 274.397L521.807 261.478H498.708L501.806 274.397H525.676Z" fill="#263238" stroke="white" stroke-linecap="round" stroke-linejoin="round"/>
<path d="M549.545 274.397L544.888 261.478H521.807L525.676 274.397H549.545Z" fill="#263238" stroke="white" stroke-linecap="round" stroke-linejoin="round"/>
<path d="M287.019 274.397L290.869 261.478H267.77L263.15 274.397H287.019Z" fill="#263238" stroke="white" stroke-linecap="round" stroke-linejoin="round"/>
<path d="M454.086 274.397L452.528 261.478H429.428L430.217 274.397H454.086Z" fill="#263238" stroke="white" stroke-linecap="round" stroke-linejoin="round"/>
<path d="M573.414 274.397L567.987 261.478H544.888L549.545 274.397H573.414Z" fill="#263238" stroke="white" stroke-linecap="round" stroke-linejoin="round"/>
<path d="M501.806 274.397L498.708 261.478H475.608L477.937 274.397H501.806Z" fill="#263238" stroke="white" stroke-linecap="round" stroke-linejoin="round"/>
<path d="M477.937 274.397L475.608 261.478H452.528L454.086 274.397H477.937Z" fill="#263238" stroke="white" stroke-linecap="round" stroke-linejoin="round"/>
<path d="M406.348 274.397L406.329 261.478H383.229L382.478 274.397H406.348Z" fill="#263238" stroke="white" stroke-linecap="round" stroke-linejoin="round"/>
<path d="M239.281 274.397H215.411L208.82 288.204H233.515L239.281 274.397Z" fill="#263238" stroke="white" stroke-linecap="round" stroke-linejoin="round"/>
<path d="M244.671 261.478H221.59L215.411 274.397H239.281L244.671 261.478Z" fill="#263238" stroke="white" stroke-linecap="round" stroke-linejoin="round"/>
<path d="M263.15 274.397L267.77 261.478H244.67L239.281 274.397H263.15Z" fill="#263238" stroke="white" stroke-linecap="round" stroke-linejoin="round"/>
<path d="M201.758 303.003L194.171 318.915H220.707L227.337 303.003H201.758Z" fill="#263238" stroke="white" stroke-linecap="round" stroke-linejoin="round"/>
<path d="M233.515 288.204H208.82L201.758 303.003H227.337L233.515 288.204Z" fill="#263238" stroke="white" stroke-linecap="round" stroke-linejoin="round"/>
<path d="M227.337 303.003L220.707 318.915H247.243L252.915 303.003H227.337Z" fill="#263238" stroke="white" stroke-linecap="round" stroke-linejoin="round"/>
<path d="M334.758 274.397L337.049 261.478H313.95L310.889 274.397H334.758Z" fill="#263238" stroke="white" stroke-linecap="round" stroke-linejoin="round"/>
<path d="M332.279 288.204L334.758 274.397H310.889L307.602 288.204H332.279Z" fill="#263238" stroke="white" stroke-linecap="round" stroke-linejoin="round"/>
<path d="M307.602 288.204L310.889 274.397H287.019L282.907 288.204H307.602Z" fill="#263238" stroke="white" stroke-linecap="round" stroke-linejoin="round"/>
<path d="M356.975 288.204L358.609 274.397H334.758L332.279 288.204H356.975Z" fill="#263238" stroke="white" stroke-linecap="round" stroke-linejoin="round"/>
<path d="M263.15 274.397H239.281L233.515 288.204H258.211L263.15 274.397Z" fill="#263238" stroke="white" stroke-linecap="round" stroke-linejoin="round"/>
<path d="M559.837 303.003H585.415L579.199 288.204H554.522L559.837 303.003Z" fill="#263238" stroke="white" stroke-linecap="round" stroke-linejoin="round"/>
<path d="M282.907 288.204L287.019 274.397H263.15L258.211 288.204H282.907Z" fill="#263238" stroke="white" stroke-linecap="round" stroke-linejoin="round"/>
<path d="M233.515 288.204L227.337 303.003H252.915L258.211 288.204H233.515Z" fill="#263238" stroke="white" stroke-linecap="round" stroke-linejoin="round"/>
<path d="M505.13 288.204L501.806 274.397H477.937L480.435 288.204H505.13Z" fill="#263238" stroke="white" stroke-linecap="round" stroke-linejoin="round"/>
<path d="M480.435 288.204L477.937 274.397H454.086L455.739 288.204H480.435Z" fill="#263238" stroke="white" stroke-linecap="round" stroke-linejoin="round"/>
<path d="M554.522 288.204L549.545 274.397H525.676L529.826 288.204H554.522Z" fill="#263238" stroke="white" stroke-linecap="round" stroke-linejoin="round"/>
<path d="M406.366 288.204L406.348 274.397H382.478L381.671 288.204H406.366Z" fill="#263238" stroke="white" stroke-linecap="round" stroke-linejoin="round"/>
<path d="M455.739 288.204L454.086 274.397H430.217L431.062 288.204H455.739Z" fill="#263238" stroke="white" stroke-linecap="round" stroke-linejoin="round"/>
<path d="M431.062 288.204L430.217 274.397H406.348L406.366 288.204H431.062Z" fill="#263238" stroke="white" stroke-linecap="round" stroke-linejoin="round"/>
<path d="M381.671 288.204L382.478 274.397H358.609L356.975 288.204H381.671Z" fill="#263238" stroke="white" stroke-linecap="round" stroke-linejoin="round"/>
<path d="M455.739 288.204L457.542 303.003H483.101L480.435 288.204H455.739Z" fill="#263238" stroke="white" stroke-linecap="round" stroke-linejoin="round"/>
<path d="M480.435 288.204L483.101 303.003H508.68L505.13 288.204H480.435Z" fill="#263238" stroke="white" stroke-linecap="round" stroke-linejoin="round"/>
<path d="M258.211 288.204L252.915 303.003H278.493L282.907 288.204H258.211Z" fill="#263238" stroke="white" stroke-linecap="round" stroke-linejoin="round"/>
<path d="M505.13 288.204L508.68 303.003H534.258L529.826 288.204H505.13Z" fill="#263238" stroke="white" stroke-linecap="round" stroke-linejoin="round"/>
<path d="M406.366 288.204L406.385 303.003H431.963L431.062 288.204H406.366Z" fill="#263238" stroke="white" stroke-linecap="round" stroke-linejoin="round"/>
<path d="M529.826 288.204L534.258 303.003H559.836L554.522 288.204H529.826Z" fill="#263238" stroke="white" stroke-linecap="round" stroke-linejoin="round"/>
<path d="M431.062 288.204L431.963 303.003H457.542L455.739 288.204H431.062Z" fill="#263238" stroke="white" stroke-linecap="round" stroke-linejoin="round"/>
<path d="M307.602 288.204L304.072 303.003H329.65L332.279 288.204H307.602Z" fill="#263238" stroke="white" stroke-linecap="round" stroke-linejoin="round"/>
<path d="M282.907 288.204L278.493 303.003H304.072L307.602 288.204H282.907Z" fill="#263238" stroke="white" stroke-linecap="round" stroke-linejoin="round"/>
<path d="M381.671 288.204L380.807 303.003H406.385L406.366 288.204H381.671Z" fill="#263238" stroke="white" stroke-linecap="round" stroke-linejoin="round"/>
<path d="M356.975 288.204L355.228 303.003H380.807L381.671 288.204H356.975Z" fill="#263238" stroke="white" stroke-linecap="round" stroke-linejoin="round"/>
<path d="M332.279 288.204L329.65 303.003H355.228L356.975 288.204H332.279Z" fill="#263238" stroke="white" stroke-linecap="round" stroke-linejoin="round"/>
<path d="M529.826 288.204L525.676 274.397H501.806L505.13 288.204H529.826Z" fill="#263238" stroke="white" stroke-linecap="round" stroke-linejoin="round"/>
<path d="M244.671 261.478L250.192 248.243H227.881L221.59 261.478H244.671Z" fill="#263238" stroke="white" stroke-linecap="round" stroke-linejoin="round"/>
<path d="M221.59 261.478H200.256L193.382 274.397H215.411L221.59 261.478Z" fill="#263238" stroke="white" stroke-linecap="round" stroke-linejoin="round"/>
<path d="M227.881 248.243H207.298L200.256 261.478H221.59L227.881 248.243Z" fill="#263238" stroke="white" stroke-linecap="round" stroke-linejoin="round"/>
<path d="M215.411 274.397H193.382L186.039 288.204H208.819L215.411 274.397Z" fill="#263238" stroke="white" stroke-linecap="round" stroke-linejoin="round"/>
<path d="M208.819 288.204H186.039L178.152 303.003H201.758L208.819 288.204Z" fill="#263238" stroke="white" stroke-linecap="round" stroke-linejoin="round"/>
<path d="M201.758 303.003H178.152L169.682 318.915H194.171L201.758 303.003Z" fill="#263238" stroke="white" stroke-linecap="round" stroke-linejoin="round"/>
<path d="M597.265 274.397L603.894 288.204H625.735L618.392 274.397H597.265Z" fill="#263238" stroke="white" stroke-linecap="round" stroke-linejoin="round"/>
<path d="M610.993 303.003H633.623L625.735 288.204H603.894L610.993 303.003Z" fill="#263238" stroke="white" stroke-linecap="round" stroke-linejoin="round"/>
<path d="M618.618 318.915H642.093L633.623 303.003H610.993L618.618 318.915Z" fill="#263238" stroke="white" stroke-linecap="round" stroke-linejoin="round"/>
<path d="M429.428 261.478L428.621 248.243H406.31L406.329 261.478H429.428Z" fill="#263238" stroke="white" stroke-linecap="round" stroke-linejoin="round"/>
<path d="M597.265 274.397H618.392L611.519 261.478H591.086L597.265 274.397Z" fill="#263238" stroke="white" stroke-linecap="round" stroke-linejoin="round"/>
<path d="M585.415 303.003H610.993L603.894 288.204H579.199L585.415 303.003Z" fill="#263238" stroke="white" stroke-linecap="round" stroke-linejoin="round"/>
<path d="M267.77 261.478L272.502 248.243H250.192L244.671 261.478H267.77Z" fill="#263238" stroke="white" stroke-linecap="round" stroke-linejoin="round"/>
<path d="M567.987 261.478L573.414 274.397H597.265L591.086 261.478H567.987Z" fill="#263238" stroke="white" stroke-linecap="round" stroke-linejoin="round"/>
<path d="M611.519 261.478L604.477 248.243H584.739L591.086 261.478H611.519Z" fill="#263238" stroke="white" stroke-linecap="round" stroke-linejoin="round"/>
<path d="M591.086 261.478L584.739 248.243H562.447L567.987 261.478H591.086Z" fill="#263238" stroke="white" stroke-linecap="round" stroke-linejoin="round"/>
<path d="M508.68 303.003L512.511 318.915H539.028L534.258 303.003H508.68Z" fill="#263238" stroke="white" stroke-linecap="round" stroke-linejoin="round"/>
<path d="M592.082 318.915H618.618L610.993 303.003H585.415L592.082 318.915Z" fill="#263238" stroke="white" stroke-linecap="round" stroke-linejoin="round"/>
<path d="M567.987 261.478L562.447 248.243H540.136L544.888 261.478H567.987Z" fill="#263238" stroke="white" stroke-linecap="round" stroke-linejoin="round"/>
<path d="M559.836 303.003L565.564 318.915H592.082L585.415 303.003H559.836Z" fill="#263238" stroke="white" stroke-linecap="round" stroke-linejoin="round"/>
<path d="M534.258 303.003L539.028 318.915H565.564L559.836 303.003H534.258Z" fill="#263238" stroke="white" stroke-linecap="round" stroke-linejoin="round"/>
<path d="M579.199 288.204H603.894L597.265 274.397H573.414L579.199 288.204Z" fill="#263238" stroke="white" stroke-linecap="round" stroke-linejoin="round"/>
<path d="M360.149 261.478L361.707 248.243H339.397L337.049 261.478H360.149Z" fill="#263238" stroke="white" stroke-linecap="round" stroke-linejoin="round"/>
<path d="M544.888 261.478L540.136 248.243H517.826L521.807 261.478H544.888Z" fill="#263238" stroke="white" stroke-linecap="round" stroke-linejoin="round"/>
<path d="M337.049 261.478L339.397 248.243H317.105L313.95 261.478H337.049Z" fill="#263238" stroke="white" stroke-linecap="round" stroke-linejoin="round"/>
<path d="M406.329 261.478L406.31 248.243H384.018L383.229 261.478H406.329Z" fill="#263238" stroke="white" stroke-linecap="round" stroke-linejoin="round"/>
<path d="M313.95 261.478L317.105 248.243H294.794L290.869 261.478H313.95Z" fill="#263238" stroke="white" stroke-linecap="round" stroke-linejoin="round"/>
<path d="M290.869 261.478L294.794 248.243H272.502L267.77 261.478H290.869Z" fill="#263238" stroke="white" stroke-linecap="round" stroke-linejoin="round"/>
<path d="M383.229 261.478L384.018 248.243H361.707L360.149 261.478H383.229Z" fill="#263238" stroke="white" stroke-linecap="round" stroke-linejoin="round"/>
<path d="M521.807 261.478L517.826 248.243H495.534L498.708 261.478H521.807Z" fill="#263238" stroke="white" stroke-linecap="round" stroke-linejoin="round"/>
<path d="M498.707 261.478L495.534 248.243H473.223L475.608 261.478H498.707Z" fill="#263238" stroke="white" stroke-linecap="round" stroke-linejoin="round"/>
<path d="M452.528 261.478L450.912 248.243H428.621L429.428 261.478H452.528Z" fill="#263238" stroke="white" stroke-linecap="round" stroke-linejoin="round"/>
<path d="M508.68 303.003H483.101H457.542H431.963H406.385H380.807H355.228H329.65H304.072H278.493H252.915L247.243 318.915H273.761H300.297H326.814H353.35H379.868H406.404H432.921H459.457H485.975H512.511L508.68 303.003Z" fill="#263238" stroke="white" stroke-linecap="round" stroke-linejoin="round"/>
<path d="M475.608 261.478L473.223 248.243H450.912L452.528 261.478H475.608Z" fill="#263238" stroke="white" stroke-linecap="round" stroke-linejoin="round"/>
<path d="M685.062 346.845H116.61V353.312H685.062V346.845Z" fill="#263238" stroke="#263238" stroke-linecap="round" stroke-linejoin="round"/>
<path d="M494.407 460.818L288.522 462.126C284.127 462.126 281.01 460.051 281.554 457.449L294.7 395.635C295.114 393.679 298.456 392.1 302.212 392.085L478.613 391.438C482.369 391.438 485.693 392.942 486.125 394.913L501.149 456.11C501.731 458.667 498.67 460.803 494.407 460.818Z" fill="#01C38E" stroke="#263238" stroke-linecap="round" stroke-linejoin="round"/>
<path d="M396.788 402.538H461.373" stroke="#263238" stroke-linecap="round" stroke-linejoin="round"/>
<path d="M363.473 406.915H461.373" stroke="#263238" stroke-linecap="round" stroke-linejoin="round"/>
<path d="M360.806 444.695C321.631 454.682 296.541 456.457 281.93 455.87L281.46 458.096C280.991 460.337 283.677 462.157 287.451 462.127L495.534 460.818C499.29 460.818 501.825 458.968 501.28 456.742L492.285 419.894C437.935 418.781 422.235 429.054 360.806 444.695Z" fill="#263238" stroke="#263238" stroke-linecap="round" stroke-linejoin="round"/>
<path d="M327.152 418.285L310.908 418.36C309.386 418.36 308.278 417.698 308.429 416.856L309.818 408.584C309.969 407.802 311.264 407.155 312.729 407.155L328.58 407.08C330.044 407.08 331.152 407.712 331.058 408.494L330.063 416.751C329.969 417.593 328.655 418.27 327.152 418.285Z" fill="white" stroke="#263238" stroke-linecap="round" stroke-linejoin="round"/>
<path d="M321.612 414.42H317.593C316.861 414.42 316.316 414.104 316.373 413.713L316.692 411.667C316.692 411.276 317.387 410.96 318.1 410.96H322.138C322.87 410.96 323.415 411.276 323.359 411.652L323.077 413.698C322.983 414.059 322.345 414.42 321.612 414.42Z" fill="white" stroke="#263238" stroke-linecap="round" stroke-linejoin="round"/>
<path d="M309.856 408.404H316.091C317.293 408.404 318.194 408.915 318.1 409.577L317.894 410.96" stroke="#263238" stroke-linecap="round" stroke-linejoin="round"/>
<path d="M331.096 408.404H324.955C323.734 408.404 322.683 408.93 322.589 409.577L322.401 410.975" stroke="#263238" stroke-linecap="round" stroke-linejoin="round"/>
<path d="M308.372 417.187H314.72C315.959 417.187 317.049 416.631 317.143 415.954L317.349 414.54" stroke="#263238" stroke-linecap="round" stroke-linejoin="round"/>
<path d="M330.026 417.082H323.772C322.532 417.082 321.593 416.555 321.687 415.879L321.894 414.45" stroke="#263238" stroke-linecap="round" stroke-linejoin="round"/>
<path d="M309.123 412.975L316.485 412.946" stroke="#263238" stroke-linecap="round" stroke-linejoin="round"/>
<path d="M322.964 412.915L330.307 412.885" stroke="#263238" stroke-linecap="round" stroke-linejoin="round"/>
<path d="M306.682 435.716C306.361 435.63 306.061 435.498 305.799 435.325C305.588 435.153 305.422 434.948 305.311 434.724C305.202 434.487 305.139 434.239 305.123 433.987C305.088 433.717 305.088 433.445 305.123 433.175C305.129 432.796 305.233 432.422 305.429 432.077C305.625 431.732 305.909 431.423 306.262 431.171C306.616 430.919 307.031 430.729 307.482 430.613C307.933 430.497 308.409 430.458 308.879 430.497C311.02 430.497 311.959 431.37 311.678 433.145C311.64 433.42 311.571 433.692 311.471 433.957C311.37 434.212 311.224 434.455 311.039 434.679C310.853 434.914 310.618 435.123 310.344 435.295C310.044 435.475 309.707 435.612 309.349 435.701C308.909 435.8 308.454 435.85 307.997 435.852C307.552 435.861 307.109 435.815 306.682 435.716ZM308.729 435.19C308.913 435.14 309.089 435.074 309.255 434.994C309.394 434.911 309.52 434.815 309.631 434.709C309.75 434.599 309.851 434.478 309.931 434.348C310.011 434.223 310.074 434.092 310.119 433.957C310.119 433.806 310.213 433.671 310.25 433.551C310.262 433.415 310.262 433.28 310.25 433.145C310.25 432.994 310.25 432.859 310.25 432.738V432.332C310.262 432.197 310.262 432.061 310.25 431.926C310.211 431.811 310.154 431.7 310.081 431.595C310.002 431.487 309.9 431.391 309.781 431.31C309.641 431.237 309.49 431.181 309.33 431.144C309.125 431.113 308.915 431.113 308.71 431.144C308.492 431.12 308.271 431.12 308.053 431.144C307.875 431.186 307.704 431.247 307.546 431.325C307.403 431.404 307.276 431.5 307.17 431.61C307.052 431.706 306.956 431.818 306.889 431.941C306.805 432.072 306.736 432.208 306.682 432.347C306.625 432.48 306.581 432.616 306.551 432.753C306.54 432.894 306.54 433.034 306.551 433.175V433.566V433.972C306.539 434.107 306.539 434.243 306.551 434.378C306.59 434.498 306.647 434.614 306.72 434.724C306.787 434.834 306.883 434.931 307.001 435.009C307.139 435.087 307.291 435.148 307.452 435.19C307.663 435.221 307.88 435.221 308.091 435.19C308.302 435.213 308.517 435.213 308.729 435.19Z" fill="white"/>
<path d="M315.715 435.656C315.385 435.585 315.082 435.451 314.833 435.265C314.605 435.101 314.431 434.894 314.326 434.663C314.208 434.433 314.139 434.189 314.119 433.941C314.083 433.672 314.083 433.399 314.119 433.129C314.117 432.758 314.212 432.39 314.397 432.05C314.583 431.709 314.855 431.404 315.195 431.152C315.536 430.9 315.939 430.708 316.378 430.587C316.816 430.467 317.281 430.421 317.743 430.452C319.903 430.452 320.842 431.309 320.598 433.099C320.567 433.374 320.504 433.646 320.41 433.911C320.305 434.166 320.16 434.408 319.978 434.633C319.795 434.862 319.574 435.069 319.321 435.25C319.021 435.427 318.684 435.56 318.326 435.641C317.888 435.752 317.432 435.808 316.973 435.806C316.546 435.814 316.121 435.763 315.715 435.656ZM317.743 435.13C317.929 435.091 318.107 435.03 318.269 434.949C318.412 434.864 318.538 434.762 318.645 434.648C318.756 434.543 318.85 434.426 318.927 434.302C319.004 434.177 319.066 434.046 319.114 433.911C319.114 433.761 319.208 433.626 319.246 433.505V433.099C319.246 432.949 319.246 432.813 319.246 432.693C319.255 432.553 319.255 432.412 319.246 432.272C319.256 432.142 319.256 432.011 319.246 431.881C319.207 431.763 319.143 431.651 319.058 431.55C318.985 431.439 318.882 431.341 318.758 431.264C318.618 431.192 318.466 431.136 318.307 431.099C318.102 431.068 317.892 431.068 317.687 431.099C317.469 431.075 317.248 431.075 317.03 431.099C316.856 431.138 316.691 431.198 316.542 431.279C316.389 431.354 316.255 431.451 316.147 431.565C316.041 431.668 315.946 431.779 315.865 431.896C315.865 432.016 315.734 432.152 315.678 432.302C315.621 432.452 315.678 432.588 315.546 432.708C315.415 432.828 315.546 432.979 315.546 433.129C315.538 433.26 315.538 433.39 315.546 433.52V433.972C315.534 434.107 315.534 434.242 315.546 434.378C315.588 434.499 315.651 434.616 315.734 434.724C315.806 434.831 315.902 434.928 316.016 435.009C316.158 435.09 316.317 435.151 316.485 435.19C316.697 435.214 316.912 435.214 317.124 435.19C317.333 435.2 317.543 435.179 317.743 435.13Z" fill="white"/>
<path d="M324.73 435.611C324.402 435.537 324.1 435.403 323.847 435.22C323.619 435.056 323.445 434.849 323.34 434.618C323.208 434.391 323.132 434.146 323.115 433.896C323.078 433.627 323.078 433.354 323.115 433.084C323.102 432.714 323.187 432.347 323.365 432.005C323.543 431.664 323.81 431.356 324.147 431.103C324.484 430.85 324.885 430.657 325.322 430.537C325.759 430.417 326.223 430.373 326.683 430.407C328.824 430.407 329.8 431.264 329.594 433.054C329.562 433.329 329.499 433.601 329.406 433.866C329.306 434.117 329.174 434.359 329.011 434.588C328.832 434.819 328.603 435.023 328.335 435.19C328.044 435.373 327.713 435.51 327.359 435.596C326.928 435.708 326.478 435.764 326.025 435.761C325.586 435.769 325.148 435.718 324.73 435.611ZM326.758 435.085C326.939 435.049 327.11 434.988 327.265 434.904C327.414 434.82 327.547 434.718 327.659 434.603C327.764 434.497 327.853 434.381 327.922 434.257C327.996 434.131 328.059 434 328.11 433.866C328.11 433.716 328.148 433.581 328.223 433.46V433.054C328.223 432.904 328.223 432.768 328.223 432.648C328.232 432.508 328.232 432.367 328.223 432.227C328.211 432.094 328.18 431.963 328.129 431.836C328.09 431.718 328.026 431.606 327.941 431.505C327.873 431.391 327.77 431.292 327.641 431.219C327.503 431.144 327.351 431.088 327.19 431.054C326.983 431.004 326.768 430.978 326.551 430.979C326.336 430.987 326.122 431.012 325.913 431.054C325.739 431.093 325.574 431.153 325.424 431.234C325.282 431.308 325.156 431.4 325.049 431.505C324.942 431.613 324.848 431.729 324.767 431.851C324.693 431.978 324.631 432.108 324.579 432.242C324.526 432.379 324.488 432.52 324.467 432.663C324.455 432.803 324.455 432.944 324.467 433.084C324.467 433.22 324.467 433.355 324.467 433.475C324.458 433.611 324.458 433.746 324.467 433.881C324.455 434.017 324.455 434.152 324.467 434.287C324.517 434.407 324.58 434.523 324.655 434.633C324.734 434.737 324.836 434.829 324.955 434.904C325.097 434.99 325.255 435.056 325.424 435.1C325.636 435.124 325.851 435.124 326.063 435.1C326.294 435.123 326.529 435.118 326.758 435.085Z" fill="white"/>
<path d="M333.744 435.566C333.416 435.492 333.114 435.358 332.861 435.175C332.634 435.007 332.455 434.802 332.336 434.573C332.211 434.343 332.129 434.1 332.091 433.851C332.073 433.581 332.073 433.31 332.091 433.039C332.073 432.671 332.154 432.303 332.327 431.962C332.501 431.62 332.764 431.312 333.098 431.059C333.433 430.805 333.831 430.612 334.266 430.492C334.701 430.372 335.164 430.327 335.622 430.362C337.763 430.362 338.758 431.219 338.57 433.009C338.556 433.279 338.499 433.547 338.401 433.806C338.321 434.065 338.194 434.313 338.026 434.543C337.853 434.773 337.63 434.977 337.369 435.145C337.075 435.324 336.744 435.462 336.392 435.551C335.959 435.655 335.511 435.711 335.059 435.716C334.613 435.726 334.169 435.675 333.744 435.566ZM335.772 435.039C335.955 434.999 336.126 434.933 336.279 434.844C336.422 434.765 336.549 434.668 336.655 434.558C336.749 434.438 336.843 434.333 336.918 434.212L337.087 433.821C337.087 433.671 337.124 433.535 337.2 433.415V433.009C337.2 432.859 337.2 432.723 337.2 432.588C337.208 432.453 337.208 432.317 337.2 432.182C337.173 432.05 337.135 431.919 337.087 431.791C337.052 431.672 336.988 431.559 336.899 431.46C336.825 431.349 336.723 431.252 336.599 431.174C336.459 431.093 336.299 431.036 336.129 431.009C335.924 430.985 335.715 430.985 335.509 431.009C335.291 430.985 335.07 430.985 334.852 431.009C334.678 431.047 334.513 431.108 334.364 431.189C334.225 431.267 334.099 431.358 333.988 431.46C333.894 431.58 333.8 431.686 333.725 431.806L333.556 432.197C333.503 432.334 333.465 432.475 333.444 432.618C333.444 432.738 333.444 432.874 333.444 433.024C333.444 433.174 333.444 433.31 333.444 433.43C333.435 433.565 333.435 433.701 333.444 433.836C333.46 433.969 333.492 434.099 333.537 434.227C333.58 434.349 333.644 434.465 333.725 434.573C333.806 434.685 333.915 434.782 334.045 434.859C334.178 434.943 334.331 435.004 334.495 435.039C334.7 435.096 334.917 435.122 335.134 435.115C335.35 435.112 335.565 435.087 335.772 435.039Z" fill="white"/>
<path d="M352.937 435.476C352.604 435.402 352.295 435.268 352.036 435.085C351.803 434.917 351.618 434.712 351.491 434.483C351.35 434.256 351.255 434.012 351.209 433.761C351.171 433.491 351.171 433.219 351.209 432.949C351.171 432.586 351.233 432.22 351.392 431.879C351.55 431.537 351.8 431.227 352.124 430.972C352.449 430.716 352.84 430.521 353.269 430.4C353.698 430.279 354.156 430.235 354.609 430.272C356.75 430.272 357.764 431.144 357.67 432.919C357.656 433.192 357.612 433.464 357.538 433.731C357.46 433.983 357.34 434.226 357.181 434.453C357.022 434.682 356.812 434.886 356.562 435.055C356.273 435.231 355.949 435.368 355.604 435.461C355.173 435.573 354.723 435.628 354.271 435.626C353.819 435.637 353.368 435.586 352.937 435.476ZM354.928 434.949C355.107 434.91 355.278 434.849 355.435 434.769C355.568 434.68 355.688 434.579 355.792 434.468C355.892 434.362 355.974 434.246 356.036 434.122C356.106 433.996 356.163 433.865 356.205 433.731C356.205 433.581 356.205 433.445 356.205 433.325C356.216 433.19 356.216 433.054 356.205 432.919C356.214 432.784 356.214 432.648 356.205 432.513C356.214 432.378 356.214 432.242 356.205 432.107C356.205 431.956 356.205 431.821 356.092 431.716C356.035 431.596 355.966 431.481 355.886 431.37C355.793 431.265 355.678 431.174 355.548 431.099C355.407 431.015 355.248 430.954 355.078 430.919C354.873 430.894 354.664 430.894 354.458 430.919C354.242 430.918 354.027 430.943 353.82 430.994C353.65 431.034 353.486 431.09 353.332 431.159C353.194 431.239 353.074 431.335 352.975 431.445C352.869 431.548 352.786 431.665 352.731 431.791C352.657 431.916 352.601 432.047 352.562 432.182C352.562 432.332 352.562 432.468 352.468 432.588C352.458 432.728 352.458 432.869 352.468 433.009C352.459 433.139 352.459 433.27 352.468 433.4C352.458 433.535 352.458 433.671 352.468 433.806C352.483 433.945 352.521 434.081 352.58 434.212C352.631 434.334 352.7 434.45 352.787 434.558C352.873 434.667 352.981 434.764 353.106 434.844C353.247 434.928 353.406 434.989 353.576 435.024C353.787 435.049 354.003 435.049 354.214 435.024C354.457 435.025 354.698 434.995 354.928 434.934V434.949Z" fill="white"/>
<path d="M361.933 435.476C361.595 435.398 361.282 435.265 361.013 435.085C360.78 434.917 360.594 434.712 360.468 434.483C360.318 434.259 360.222 434.014 360.186 433.761C360.147 433.491 360.147 433.219 360.186 432.949C360.129 432.589 360.172 432.223 360.314 431.878C360.456 431.534 360.692 431.218 361.005 430.956C361.318 430.694 361.701 430.491 362.124 430.362C362.548 430.233 363.002 430.182 363.454 430.212C365.595 430.212 366.628 431.084 366.553 432.859C366.558 433.382 366.403 433.898 366.102 434.363C365.943 434.592 365.733 434.795 365.482 434.964C365.202 435.144 364.884 435.282 364.543 435.37C364.111 435.475 363.662 435.531 363.21 435.536C362.783 435.57 362.352 435.55 361.933 435.476ZM363.923 434.949C364.101 434.912 364.268 434.845 364.412 434.754C364.553 434.678 364.674 434.581 364.769 434.468C364.869 434.362 364.951 434.245 365.013 434.122C365.074 433.995 365.124 433.864 365.163 433.731C365.163 433.581 365.163 433.445 365.163 433.325C365.163 433.205 365.163 433.069 365.163 432.919V432.468C365.172 432.332 365.172 432.197 365.163 432.062C365.141 431.929 365.103 431.798 365.05 431.67C364.994 431.548 364.918 431.432 364.825 431.325C364.739 431.22 364.631 431.129 364.506 431.054C364.363 430.973 364.204 430.912 364.036 430.873C363.824 430.849 363.609 430.849 363.398 430.873C363.186 430.85 362.971 430.85 362.759 430.873C362.594 430.918 362.437 430.979 362.29 431.054C362.148 431.129 362.027 431.227 361.933 431.34C361.831 431.439 361.749 431.551 361.689 431.67C361.625 431.802 361.575 431.938 361.538 432.077C361.538 432.227 361.538 432.362 361.445 432.483C361.351 432.603 361.445 432.753 361.445 432.904V433.295C361.426 433.43 361.426 433.566 361.445 433.701C361.46 433.84 361.498 433.976 361.557 434.107C361.603 434.226 361.673 434.337 361.764 434.438C361.85 434.546 361.958 434.643 362.083 434.724C362.226 434.804 362.384 434.865 362.553 434.904C362.758 434.961 362.974 434.986 363.191 434.979C363.44 434.981 363.687 434.95 363.923 434.889V434.949Z" fill="white"/>
<path d="M370.966 435.37C370.63 435.29 370.317 435.157 370.046 434.979C369.802 434.817 369.609 434.611 369.482 434.378C369.34 434.149 369.239 433.906 369.182 433.656C369.151 433.386 369.151 433.114 369.182 432.844C369.128 432.484 369.177 432.12 369.324 431.778C369.47 431.436 369.711 431.124 370.029 430.867C370.347 430.61 370.733 430.413 371.158 430.292C371.584 430.171 372.038 430.128 372.487 430.166C374.628 430.166 375.68 431.039 375.642 432.813C375.641 433.086 375.609 433.358 375.548 433.626C375.486 433.879 375.372 434.123 375.21 434.348C375.064 434.579 374.859 434.784 374.609 434.949C374.335 435.135 374.015 435.273 373.67 435.355C373.245 435.463 372.801 435.514 372.356 435.506C371.887 435.517 371.418 435.471 370.966 435.37ZM372.844 434.844C373.019 434.8 373.184 434.734 373.332 434.648C373.469 434.569 373.59 434.472 373.689 434.363C373.779 434.254 373.854 434.138 373.914 434.017C373.976 433.889 374.026 433.759 374.065 433.626C374.065 433.475 374.065 433.34 374.065 433.22C374.065 433.099 374.065 432.964 374.065 432.813C374.075 432.678 374.075 432.543 374.065 432.407C374.082 432.267 374.082 432.126 374.065 431.986C374.038 431.854 374 431.723 373.952 431.595C373.892 431.479 373.816 431.368 373.727 431.264C373.634 431.16 373.519 431.068 373.389 430.994C373.246 430.913 373.087 430.852 372.919 430.813C372.707 430.788 372.492 430.788 372.281 430.813C372.069 430.789 371.854 430.789 371.642 430.813C371.474 430.852 371.315 430.913 371.173 430.994C371.035 431.073 370.915 431.17 370.816 431.279C370.726 431.383 370.651 431.494 370.59 431.61C370.527 431.742 370.476 431.878 370.44 432.016C370.44 432.152 370.44 432.302 370.44 432.422C370.43 432.563 370.43 432.703 370.44 432.844C370.421 432.973 370.421 433.105 370.44 433.235C370.424 433.37 370.424 433.506 370.44 433.641C370.454 433.775 370.491 433.906 370.553 434.032C370.609 434.154 370.685 434.271 370.778 434.378C370.866 434.495 370.983 434.597 371.122 434.677C371.261 434.758 371.419 434.814 371.586 434.844C371.793 434.894 372.008 434.92 372.224 434.919C372.434 434.917 372.643 434.892 372.844 434.844Z" fill="white"/>
<path d="M379.905 435.325C379.571 435.242 379.259 435.109 378.985 434.934C378.741 434.768 378.543 434.563 378.403 434.333C378.261 434.104 378.16 433.861 378.102 433.611C378.041 433.343 378.01 433.071 378.008 432.799C377.945 432.442 377.985 432.078 378.125 431.736C378.264 431.393 378.5 431.081 378.814 430.822C379.127 430.564 379.51 430.366 379.934 430.245C380.358 430.123 380.81 430.081 381.257 430.121C383.398 430.121 384.469 430.994 384.469 432.769C384.478 433.036 384.446 433.304 384.375 433.566C384.32 433.822 384.219 434.07 384.074 434.303C383.923 434.531 383.719 434.735 383.473 434.904C383.203 435.087 382.891 435.225 382.553 435.31C382.126 435.41 381.683 435.46 381.239 435.461C380.788 435.466 380.34 435.42 379.905 435.325ZM381.877 434.799C382.049 434.749 382.213 434.683 382.365 434.603C382.501 434.527 382.616 434.43 382.703 434.318C382.793 434.209 382.869 434.093 382.929 433.972C382.995 433.842 383.039 433.705 383.06 433.566C383.06 433.43 383.06 433.295 383.06 433.175C383.06 433.054 383.06 432.919 383.06 432.769C383.06 432.618 383.06 432.483 383.06 432.362C383.06 432.242 383.06 432.092 383.06 431.941C383.027 431.809 382.984 431.678 382.929 431.55C382.868 431.434 382.793 431.323 382.703 431.219C382.61 431.115 382.496 431.023 382.365 430.949C382.223 430.868 382.064 430.807 381.896 430.768C381.684 430.744 381.469 430.744 381.257 430.768C381.046 430.744 380.831 430.744 380.619 430.768C380.451 430.807 380.292 430.868 380.149 430.949C380.014 431.025 379.899 431.122 379.811 431.234C379.71 431.334 379.627 431.446 379.567 431.565C379.567 431.686 379.473 431.821 379.436 431.971C379.427 432.107 379.427 432.242 379.436 432.377C379.436 432.498 379.436 432.648 379.436 432.784C379.436 432.919 379.436 433.069 379.436 433.19C379.436 433.31 379.436 433.445 379.436 433.596C379.466 433.729 379.51 433.86 379.567 433.987C379.623 434.109 379.699 434.226 379.793 434.333C379.88 434.445 379.995 434.542 380.131 434.618C380.278 434.702 380.444 434.763 380.619 434.799C380.826 434.849 381.041 434.875 381.257 434.874C381.467 434.872 381.676 434.847 381.877 434.799Z" fill="white"/>
<path d="M399.136 435.22C398.786 435.146 398.459 435.012 398.178 434.829C397.934 434.66 397.73 434.456 397.577 434.227C397.426 433.999 397.313 433.757 397.239 433.505C397.16 433.239 397.123 432.967 397.127 432.693C397.127 430.919 398.122 430.031 400.263 430.031C400.708 429.988 401.16 430.026 401.584 430.143C402.009 430.26 402.394 430.452 402.713 430.705C403.031 430.958 403.273 431.266 403.421 431.605C403.569 431.945 403.62 432.306 403.568 432.663C403.607 432.933 403.607 433.206 403.568 433.475C403.526 433.727 403.431 433.971 403.286 434.197C403.16 434.43 402.967 434.636 402.723 434.799C402.46 434.982 402.153 435.12 401.822 435.205C400.961 435.395 400.053 435.395 399.192 435.205L399.136 435.22ZM401.014 434.694C401.343 434.61 401.627 434.441 401.822 434.212C401.909 434.105 401.978 433.988 402.028 433.866C402.087 433.741 402.125 433.609 402.141 433.475C402.141 433.325 402.141 433.19 402.141 433.069V432.678C402.141 432.528 402.141 432.377 402.141 432.257C402.141 432.137 402.141 432.001 402.141 431.851C402.141 431.701 402.047 431.58 401.991 431.46L401.746 431.114C401.642 431.013 401.522 430.922 401.39 430.843C401.247 430.763 401.088 430.702 400.92 430.663C400.708 430.647 400.494 430.647 400.282 430.663C400.065 430.662 399.85 430.688 399.643 430.738C399.475 430.777 399.316 430.838 399.174 430.919C399.054 430.998 398.946 431.089 398.854 431.189C398.765 431.298 398.689 431.414 398.629 431.535C398.629 431.641 398.629 431.776 398.516 431.926C398.5 432.061 398.5 432.197 398.516 432.332V432.753C398.506 432.884 398.506 433.014 398.516 433.145C398.498 433.28 398.498 433.416 398.516 433.551C398.547 433.689 398.591 433.824 398.648 433.957C398.722 434.07 398.804 434.181 398.892 434.288C398.986 434.401 399.107 434.498 399.249 434.573C399.396 434.657 399.562 434.718 399.737 434.754C399.948 434.786 400.165 434.786 400.375 434.754C400.591 434.758 400.806 434.738 401.014 434.694Z" fill="white"/>
<path d="M408 435.175C407.653 435.094 407.328 434.962 407.042 434.784C406.793 434.618 406.588 434.414 406.441 434.182C406.282 433.956 406.162 433.713 406.085 433.46C406.008 433.194 405.964 432.922 405.953 432.648C405.859 430.873 406.892 429.986 409.033 429.986C409.481 429.944 409.934 429.983 410.361 430.099C410.787 430.216 411.176 430.407 411.498 430.66C411.82 430.912 412.068 431.219 412.223 431.558C412.378 431.896 412.437 432.259 412.395 432.618C412.424 432.888 412.424 433.16 412.395 433.43C412.351 433.68 412.262 433.923 412.132 434.152C411.992 434.379 411.801 434.583 411.568 434.754C411.305 434.937 410.999 435.075 410.667 435.16C410.242 435.269 409.798 435.32 409.352 435.31C408.896 435.317 408.44 435.272 408 435.175ZM409.878 434.649C410.047 434.605 410.206 434.539 410.348 434.453C410.473 434.372 410.581 434.276 410.667 434.167C410.751 434.058 410.82 433.942 410.874 433.821C410.931 433.695 410.969 433.564 410.986 433.43C410.986 433.28 410.986 433.145 410.986 433.024V432.618C410.986 432.468 410.986 432.332 410.986 432.212C410.973 432.074 410.942 431.938 410.892 431.806C410.829 431.54 410.695 431.289 410.498 431.069C410.398 430.964 410.278 430.872 410.141 430.798C409.992 430.717 409.827 430.656 409.653 430.618C409.441 430.6 409.227 430.6 409.014 430.618C408.809 430.594 408.6 430.594 408.395 430.618C408.227 430.656 408.068 430.717 407.925 430.798C407.805 430.878 407.698 430.969 407.606 431.069C407.514 431.175 407.445 431.291 407.399 431.415C407.338 431.54 407.3 431.672 407.287 431.806C407.287 431.956 407.287 432.092 407.287 432.212C407.268 432.352 407.268 432.493 407.287 432.633C407.276 432.763 407.276 432.894 407.287 433.024C407.287 433.145 407.287 433.28 407.287 433.43C407.32 433.564 407.37 433.695 407.437 433.821C407.506 433.945 407.595 434.061 407.7 434.167C407.787 434.28 407.902 434.377 408.038 434.453C408.187 434.534 408.352 434.595 408.526 434.633C408.74 434.683 408.961 434.708 409.183 434.709C409.436 434.722 409.69 434.702 409.935 434.649H409.878Z" fill="white"/>
<path d="M416.958 435.13C416.611 435.049 416.286 434.917 416 434.739C415.75 434.57 415.54 434.366 415.381 434.137C415.217 433.911 415.091 433.668 415.005 433.415C414.924 433.149 414.873 432.877 414.855 432.603C414.742 430.828 415.756 429.941 417.878 429.941C418.329 429.897 418.786 429.935 419.216 430.05C419.647 430.165 420.04 430.356 420.367 430.608C420.694 430.86 420.947 431.167 421.108 431.507C421.269 431.846 421.333 432.211 421.296 432.573C421.325 432.838 421.325 433.105 421.296 433.37C421.262 433.624 421.179 433.873 421.052 434.107C420.914 434.331 420.73 434.534 420.508 434.709C420.245 434.891 419.938 435.03 419.606 435.115C419.186 435.215 418.749 435.266 418.31 435.265C417.854 435.272 417.399 435.226 416.958 435.13ZM418.836 434.603C419.002 434.554 419.16 434.488 419.306 434.408C419.435 434.331 419.544 434.234 419.625 434.122C419.709 434.013 419.778 433.897 419.832 433.776C419.842 433.646 419.842 433.515 419.832 433.385C419.832 433.235 419.832 433.099 419.832 432.979C419.84 432.844 419.84 432.708 419.832 432.573V432.167C419.809 432.03 419.778 431.895 419.738 431.761C419.707 431.624 419.65 431.492 419.569 431.37C419.502 431.248 419.42 431.132 419.325 431.024C419.22 430.922 419.1 430.831 418.968 430.753C418.817 430.675 418.652 430.614 418.479 430.573C418.267 430.557 418.053 430.557 417.841 430.573C417.625 430.572 417.409 430.598 417.202 430.648C417.04 430.686 416.888 430.748 416.752 430.828C416.627 430.903 416.519 430.995 416.432 431.099C416.345 431.207 416.276 431.323 416.226 431.445C416.212 431.575 416.212 431.706 416.226 431.836C416.209 431.971 416.209 432.107 416.226 432.242V432.663V433.054C416.242 433.192 416.274 433.327 416.32 433.46C416.353 433.594 416.403 433.725 416.47 433.851C416.539 433.975 416.628 434.091 416.733 434.197C416.827 434.31 416.949 434.407 417.09 434.483C417.239 434.564 417.404 434.625 417.578 434.664C417.785 434.713 418 434.738 418.217 434.739C418.443 434.721 418.665 434.676 418.874 434.603H418.836Z" fill="white"/>
<path d="M425.916 435.07C425.57 434.994 425.245 434.866 424.959 434.694C424.702 434.526 424.485 434.322 424.32 434.092C424.15 433.866 424.017 433.624 423.926 433.37C423.845 433.103 423.795 432.832 423.775 432.558C423.606 430.783 424.602 429.896 426.743 429.896C427.194 429.856 427.651 429.895 428.082 430.011C428.512 430.127 428.906 430.317 429.235 430.568C429.564 430.819 429.821 431.124 429.987 431.463C430.154 431.801 430.226 432.165 430.198 432.528C430.236 432.793 430.236 433.06 430.198 433.325C430.163 433.579 430.081 433.827 429.954 434.062C429.829 434.288 429.651 434.492 429.428 434.663C429.175 434.846 428.873 434.98 428.545 435.055C428.128 435.168 427.69 435.224 427.25 435.22C426.798 435.228 426.348 435.178 425.916 435.07ZM427.794 434.558C427.96 434.508 428.118 434.443 428.264 434.363C428.389 434.282 428.497 434.186 428.583 434.077C428.658 433.966 428.721 433.85 428.771 433.731C428.783 433.596 428.783 433.46 428.771 433.325C428.78 433.195 428.78 433.064 428.771 432.934C428.78 432.799 428.78 432.663 428.771 432.528V432.122C428.751 431.984 428.714 431.847 428.658 431.716C428.628 431.579 428.571 431.447 428.489 431.325C428.421 431.2 428.333 431.084 428.226 430.979C428.126 430.874 428.006 430.782 427.869 430.708C427.72 430.627 427.555 430.566 427.381 430.527C427.169 430.504 426.954 430.504 426.743 430.527C426.526 430.527 426.311 430.552 426.104 430.603C425.943 430.645 425.791 430.705 425.653 430.783C425.415 430.947 425.24 431.16 425.146 431.4C425.101 431.528 425.069 431.659 425.052 431.791C425.052 431.941 425.052 432.077 425.052 432.197C425.052 432.317 425.052 432.468 425.052 432.618C425.042 432.748 425.042 432.879 425.052 433.009C425.052 433.129 425.052 433.265 425.165 433.415C425.199 433.551 425.256 433.683 425.334 433.806C425.402 433.931 425.49 434.047 425.597 434.152C425.691 434.265 425.813 434.362 425.954 434.438C426.103 434.519 426.268 434.58 426.442 434.618C426.66 434.649 426.882 434.649 427.099 434.618C427.34 434.63 427.581 434.61 427.813 434.558H427.794Z" fill="white"/>
<path d="M444.978 434.979C444.621 434.895 444.284 434.763 443.983 434.588C443.726 434.416 443.504 434.213 443.325 433.987C443.143 433.764 443.003 433.521 442.912 433.265C442.816 433 442.753 432.728 442.724 432.453C442.499 430.693 443.438 429.806 445.579 429.79C446.035 429.754 446.495 429.796 446.93 429.912C447.364 430.029 447.763 430.217 448.1 430.466C448.437 430.714 448.704 431.017 448.885 431.354C449.065 431.692 449.155 432.056 449.147 432.422C449.184 432.692 449.184 432.965 449.147 433.235C449.123 433.482 449.054 433.725 448.941 433.957C448.834 434.183 448.668 434.388 448.452 434.558C448.196 434.741 447.896 434.879 447.57 434.964C447.15 435.067 446.713 435.118 446.274 435.115C445.836 435.118 445.4 435.072 444.978 434.979ZM446.856 434.453C447.018 434.406 447.169 434.34 447.307 434.257C447.431 434.18 447.533 434.083 447.607 433.972C447.68 433.862 447.736 433.746 447.776 433.626C447.82 433.497 447.851 433.367 447.87 433.235V432.829C447.879 432.698 447.879 432.568 447.87 432.438C447.87 432.287 447.87 432.152 447.87 432.016C447.87 431.881 447.87 431.761 447.739 431.61C447.691 431.476 447.628 431.345 447.551 431.219C447.477 431.102 447.389 430.992 447.288 430.888C447.182 430.783 447.055 430.691 446.912 430.618C446.754 430.54 446.584 430.479 446.405 430.437C446.193 430.413 445.979 430.413 445.767 430.437C445.561 430.413 445.353 430.413 445.147 430.437C444.983 430.472 444.83 430.534 444.696 430.618C444.577 430.699 444.476 430.796 444.396 430.903C444.315 431.006 444.251 431.118 444.208 431.234C444.196 431.364 444.196 431.495 444.208 431.625C444.199 431.761 444.199 431.896 444.208 432.031C444.208 432.167 444.208 432.302 444.208 432.453V432.844C444.243 432.981 444.287 433.116 444.339 433.25C444.379 433.384 444.435 433.515 444.508 433.641C444.585 433.765 444.679 433.881 444.79 433.987C444.891 434.1 445.019 434.197 445.166 434.272C445.32 434.356 445.492 434.417 445.673 434.453C445.88 434.502 446.095 434.527 446.311 434.528C446.496 434.522 446.679 434.496 446.856 434.453Z" fill="white"/>
<path d="M453.898 434.934C453.55 434.844 453.221 434.712 452.922 434.543C452.654 434.376 452.425 434.172 452.246 433.941C452.064 433.716 451.919 433.474 451.814 433.22C451.711 432.955 451.642 432.683 451.607 432.407C451.344 430.648 452.283 429.76 454.406 429.745C454.864 429.71 455.327 429.751 455.764 429.867C456.201 429.983 456.604 430.171 456.945 430.419C457.286 430.667 457.559 430.969 457.746 431.306C457.933 431.644 458.03 432.008 458.03 432.377C458.058 432.648 458.058 432.919 458.03 433.189C458.013 433.436 457.949 433.68 457.842 433.911C457.731 434.136 457.565 434.341 457.354 434.513C457.109 434.696 456.813 434.83 456.49 434.904C456.074 435.02 455.635 435.076 455.194 435.069C454.757 435.071 454.321 435.026 453.898 434.934ZM455.776 434.408C455.938 434.361 456.09 434.296 456.227 434.212C456.346 434.131 456.447 434.034 456.528 433.926C456.68 433.7 456.758 433.447 456.753 433.189C456.772 433.055 456.772 432.918 456.753 432.783C456.762 432.653 456.762 432.523 456.753 432.392C456.732 432.251 456.701 432.11 456.659 431.971C456.637 431.832 456.593 431.695 456.528 431.565C456.48 431.431 456.417 431.3 456.34 431.174C456.264 431.055 456.169 430.944 456.058 430.843C455.952 430.733 455.826 430.637 455.683 430.557C455.52 430.491 455.35 430.435 455.176 430.392C454.964 430.368 454.749 430.368 454.537 430.392C454.331 430.368 454.123 430.368 453.917 430.392C453.757 430.434 453.605 430.495 453.467 430.572C453.353 430.648 453.257 430.74 453.185 430.843C453.099 430.95 453.036 431.066 452.997 431.189C452.986 431.319 452.986 431.45 452.997 431.58C452.988 431.715 452.988 431.851 452.997 431.986V432.407C452.986 432.538 452.986 432.668 452.997 432.798C453.025 432.937 453.069 433.073 453.128 433.204C453.173 433.34 453.236 433.471 453.316 433.596C453.392 433.719 453.487 433.836 453.598 433.941C453.699 434.055 453.827 434.152 453.974 434.227C454.128 434.311 454.3 434.372 454.481 434.408C454.692 434.432 454.907 434.432 455.119 434.408C455.338 434.427 455.558 434.427 455.776 434.408Z" fill="white"/>
<path d="M462.838 434.874C462.478 434.796 462.14 434.663 461.842 434.483C461.567 434.343 461.321 434.171 461.11 433.972C460.928 433.747 460.783 433.504 460.678 433.25C460.577 432.984 460.502 432.712 460.453 432.437C460.152 430.678 461.072 429.79 463.195 429.775C463.661 429.734 464.134 429.77 464.582 429.882C465.03 429.995 465.444 430.181 465.797 430.428C466.15 430.676 466.435 430.98 466.634 431.321C466.833 431.661 466.94 432.031 466.951 432.407C466.968 432.673 466.968 432.939 466.951 433.204C466.935 433.456 466.872 433.705 466.763 433.941C466.658 434.165 466.499 434.37 466.293 434.543C466.051 434.729 465.754 434.864 465.429 434.934C465.019 435.048 464.587 435.104 464.152 435.1C463.702 435.081 463.258 435.005 462.838 434.874ZM464.716 434.348C464.876 434.306 465.028 434.245 465.166 434.167C465.28 434.086 465.376 433.989 465.448 433.881C465.601 433.655 465.678 433.401 465.673 433.144V432.738V432.347C465.673 432.197 465.674 432.046 465.58 431.926C465.542 431.788 465.491 431.652 465.429 431.52C465.381 431.385 465.319 431.255 465.242 431.129C465.159 431.009 465.058 430.898 464.941 430.798C464.835 430.688 464.708 430.591 464.565 430.512C464.403 430.446 464.233 430.39 464.058 430.347C463.847 430.323 463.632 430.323 463.42 430.347C463.215 430.321 463.005 430.321 462.8 430.347C462.638 430.385 462.485 430.447 462.349 430.527C462.236 430.603 462.14 430.695 462.068 430.798C461.995 430.908 461.939 431.024 461.899 431.144C461.877 431.274 461.877 431.405 461.899 431.535C461.88 431.67 461.88 431.806 461.899 431.941C461.881 432.081 461.881 432.222 461.899 432.362C461.899 432.498 461.899 432.633 461.899 432.753C461.899 432.874 461.899 433.009 462.03 433.159C462.081 433.295 462.15 433.427 462.237 433.55C462.313 433.674 462.408 433.791 462.518 433.896C462.626 434.011 462.76 434.108 462.913 434.182C463.067 434.266 463.239 434.327 463.42 434.363C463.631 434.394 463.847 434.394 464.058 434.363C464.271 434.39 464.487 434.385 464.697 434.348H464.716Z" fill="white"/>
<path d="M471.758 434.829C471.398 434.751 471.06 434.618 470.763 434.438C470.486 434.281 470.249 434.081 470.068 433.851C469.875 433.627 469.718 433.385 469.599 433.129C469.5 432.863 469.424 432.592 469.373 432.317C469.035 430.558 469.937 429.67 472.059 429.655C472.524 429.618 472.994 429.658 473.44 429.772C473.886 429.886 474.297 430.072 474.649 430.319C475.002 430.566 475.287 430.868 475.487 431.206C475.688 431.545 475.799 431.913 475.815 432.287C475.841 432.552 475.841 432.819 475.815 433.084C475.815 433.336 475.758 433.586 475.646 433.821C475.551 434.049 475.39 434.255 475.176 434.423C474.939 434.607 474.649 434.741 474.331 434.814C473.481 435.025 472.571 435.025 471.721 434.814L471.758 434.829ZM473.636 434.303C473.8 434.267 473.953 434.206 474.087 434.122C474.201 434.041 474.296 433.944 474.369 433.836C474.441 433.728 474.491 433.611 474.519 433.49C474.539 433.355 474.539 433.219 474.519 433.084C474.529 432.954 474.529 432.823 474.519 432.693C474.535 432.558 474.535 432.422 474.519 432.287C474.519 432.137 474.519 432.001 474.425 431.881C474.331 431.761 474.331 431.625 474.275 431.475C474.221 431.34 474.152 431.209 474.068 431.084C473.985 430.964 473.884 430.853 473.768 430.753C473.66 430.639 473.526 430.542 473.373 430.467C473.214 430.395 473.043 430.34 472.866 430.302C472.654 430.278 472.44 430.278 472.228 430.302C472.022 430.278 471.814 430.278 471.608 430.302C471.451 430.34 471.305 430.401 471.176 430.482C471.062 430.558 470.967 430.65 470.894 430.753C470.822 430.863 470.765 430.979 470.725 431.099C470.725 431.219 470.725 431.34 470.725 431.49C470.715 431.625 470.715 431.761 470.725 431.896V432.317C470.725 432.453 470.725 432.588 470.725 432.708C470.725 432.829 470.819 432.964 470.876 433.114C470.93 433.249 470.999 433.38 471.082 433.505C471.163 433.627 471.257 433.743 471.364 433.851C471.481 433.959 471.613 434.055 471.758 434.137C471.916 434.215 472.087 434.276 472.265 434.318C472.483 434.341 472.704 434.341 472.923 434.318C473.147 434.353 473.377 434.348 473.599 434.303H473.636Z" fill="white"/>
<path d="M465.317 447.944C465.918 451.448 461.561 454.351 455.532 454.381C449.504 454.411 444.264 451.568 443.832 448.079C443.4 444.59 447.795 441.837 453.654 441.807C459.514 441.777 464.716 444.5 465.317 447.944Z" fill="white" stroke="#263238" stroke-linecap="round" stroke-linejoin="round"/>
<path d="M479.89 447.868C480.604 451.358 476.322 454.261 470.312 454.291C464.303 454.321 459.044 451.493 458.424 447.989C457.805 444.484 462.18 441.762 468.04 441.732C473.899 441.702 479.195 444.5 479.89 447.868Z" fill="white" stroke="#263238" stroke-linecap="round" stroke-linejoin="round"/>
<path d="M166.809 506.269C166.809 506.269 208.801 435.761 215.261 422.18C221.721 408.599 312.185 374.308 317.03 367.796C321.875 361.283 328.298 341.28 333.199 332.873C338.101 324.465 334.007 321.217 337.237 314.103C340.467 306.989 346.12 298.582 338.045 298.582C329.969 298.582 319.471 305.696 315.415 317.337C311.358 328.977 295.226 338.693 295.226 338.693L296.034 330.933C296.841 323.157 306.532 299.228 310.57 294.055C314.607 288.881 338.852 268.186 342.082 267.539C345.313 266.892 352.58 272.713 359.848 272.713C367.116 272.713 368.731 268.201 364.694 265.599C360.656 262.997 357.426 254.59 347.792 249.416C338.157 244.242 327.603 249.416 327.603 249.416C324.909 245.825 321.942 242.369 318.72 239.068C314.664 235.188 306.588 228.721 296.09 226.781C293.016 226.219 289.823 226.217 286.747 226.777C283.672 227.337 280.793 228.443 278.324 230.014C274.606 229.395 270.842 228.963 267.056 228.721C258.981 228.074 253.328 231.954 245.253 242.257C237.177 252.559 224.238 272.668 224.238 272.668C224.238 272.668 227.468 253.898 227.468 246.137C227.468 238.376 228.276 229.969 224.238 226.736C220.2 223.502 216.162 227.382 214.547 239.023C212.932 250.664 194.359 291.423 192.011 302.417C189.664 313.411 163.747 374.218 150.001 389.754C136.254 405.29 36.5 506.269 36.5 506.269M283.113 277.285C283.113 277.285 294.381 251.401 297.649 251.401C300.917 251.401 312.992 258.515 312.992 258.515L283.113 277.285Z" fill="white"/>
<path d="M166.809 506.269C166.809 506.269 208.801 435.761 215.261 422.18C221.721 408.599 312.185 374.308 317.03 367.796C321.875 361.283 328.298 341.28 333.199 332.873C338.101 324.465 334.007 321.217 337.237 314.103C340.467 306.989 346.12 298.582 338.045 298.582C329.969 298.582 319.471 305.696 315.415 317.337C311.358 328.977 295.226 338.693 295.226 338.693L296.034 330.933C296.841 323.157 306.532 299.228 310.57 294.055C314.607 288.881 338.852 268.186 342.082 267.539C345.313 266.892 352.58 272.713 359.848 272.713C367.116 272.713 368.731 268.201 364.694 265.599C360.656 262.997 357.426 254.59 347.792 249.416C338.157 244.242 327.603 249.416 327.603 249.416C324.909 245.825 321.942 242.369 318.72 239.068C314.664 235.188 306.588 228.721 296.09 226.781C293.016 226.219 289.823 226.217 286.747 226.777C283.672 227.337 280.793 228.443 278.324 230.014C274.606 229.395 270.842 228.963 267.056 228.721C258.981 228.074 253.328 231.954 245.253 242.257C237.177 252.559 224.238 272.668 224.238 272.668C224.238 272.668 227.468 253.898 227.468 246.137C227.468 238.376 228.276 229.969 224.238 226.736C220.2 223.502 216.162 227.382 214.547 239.023C212.932 250.664 194.359 291.423 192.011 302.417C189.664 313.411 163.747 374.218 150.001 389.754C136.254 405.29 36.5 506.269 36.5 506.269M283.113 277.285C283.113 277.285 294.381 251.401 297.649 251.401C300.917 251.401 312.992 258.515 312.992 258.515L283.113 277.285Z" stroke="#263238" stroke-linecap="round" stroke-linejoin="round"/>
<path d="M185.345 330.527C185.345 330.527 199.11 296.04 201.401 287.166C203.035 280.91 208.82 288.204 208.82 288.204C208.82 288.204 220.088 281.752 220.088 287.166C220.216 290.607 221.694 293.927 224.313 296.656C224.313 296.656 221.778 287.166 233.703 284.459C245.628 281.752 250.605 285.813 248.089 296.656C245.572 307.5 249.779 303.424 252.314 300.717C254.849 298.01 251.469 291.227 266.699 286.489C281.93 281.752 290.4 286.489 287.846 296.656C285.292 306.824 281.085 315.622 281.085 330.527C281.085 345.431 284.465 358.982 287.846 358.982C291.226 358.982 309.856 343.401 313.236 353.568C316.617 363.735 309.856 363.735 292.09 375.917C274.324 388.1 227.787 398.282 220.181 410.509C212.576 422.737 207.486 430.152 202.416 430.828C197.345 431.505 188.875 407.125 164.33 409.772C139.784 412.419 114.412 432.137 120.347 424C126.281 415.863 148.254 402.944 160.949 379.963C173.645 356.982 185.345 330.527 185.345 330.527Z" fill="#01C38E"/>
<path opacity="0.4" d="M185.345 330.527C185.345 330.527 199.11 296.04 201.401 287.166C203.035 280.91 208.82 288.204 208.82 288.204C208.82 288.204 220.088 281.752 220.088 287.166C220.216 290.607 221.694 293.927 224.313 296.656C224.313 296.656 221.778 287.166 233.703 284.459C245.628 281.752 250.605 285.813 248.089 296.656C245.572 307.5 249.779 303.424 252.314 300.717C254.849 298.01 251.469 291.227 266.699 286.489C281.93 281.752 290.4 286.489 287.846 296.656C285.292 306.824 281.085 315.622 281.085 330.527C281.085 345.431 284.465 358.982 287.846 358.982C291.226 358.982 309.856 343.401 313.236 353.568C316.617 363.735 309.856 363.735 292.09 375.917C274.324 388.1 227.787 398.282 220.181 410.509C212.576 422.737 207.486 430.152 202.416 430.828C197.345 431.505 188.875 407.125 164.33 409.772C139.784 412.419 114.412 432.137 120.347 424C126.281 415.863 148.254 402.944 160.949 379.963C173.645 356.982 185.345 330.527 185.345 330.527Z" fill="white"/>
<path d="M278.268 230.059C278.268 230.059 255.732 261.117 250.812 267.584C245.891 274.051 241.929 279.872 236.257 282.459C230.586 285.046 226.567 290.866 228.182 292.806" fill="white"/>
<path d="M278.268 230.059C278.268 230.059 255.732 261.117 250.812 267.584C245.891 274.051 241.929 279.872 236.257 282.459C230.586 285.046 226.567 290.866 228.182 292.806" stroke="#263238" stroke-linecap="round" stroke-linejoin="round"/>
<path d="M224.144 272.758C221.647 276.42 218.367 279.704 214.453 282.459C207.993 286.971 200.725 290.866 199.11 295.995C198.004 299.274 196.088 302.342 193.476 305.019" fill="white"/>
<path d="M224.144 272.758C221.647 276.42 218.367 279.704 214.453 282.459C207.993 286.971 200.725 290.866 199.11 295.995C198.004 299.274 196.088 302.342 193.476 305.019" stroke="#263238" stroke-linecap="round" stroke-linejoin="round"/>
<path d="M283.113 277.285C283.113 277.285 266.962 285.692 262.925 288.279C258.887 290.866 257.291 296.687 257.291 296.687" fill="white"/>
<path d="M283.113 277.285C283.113 277.285 266.962 285.692 262.925 288.279C258.887 290.866 257.291 296.687 257.291 296.687" stroke="#263238" stroke-linecap="round" stroke-linejoin="round"/>
<path d="M327.547 249.461L312.992 258.515" stroke="#263238" stroke-linecap="round" stroke-linejoin="round"/>
<path d="M757.5 505.5C757.5 505.5 646.882 408.163 641.229 396.537C635.576 384.911 637.191 382.309 632.346 373.977C627.501 365.645 612.965 351.252 612.158 340.889C611.35 330.527 604.89 305.951 604.89 297.544C604.89 289.137 602.467 276.849 599.256 274.909C596.044 272.969 578.241 269.72 578.241 269.72C578.241 269.72 568.55 245.145 561.339 243.851C554.127 242.558 539.46 248.98 539.46 248.98C539.46 248.98 536.23 244.468 532.192 237.339C528.155 230.21 520.924 230.225 512.004 232.827C503.083 235.429 485.336 241.234 485.336 241.234C485.336 241.234 465.148 228.946 458.687 236.722C452.227 244.498 444.152 258.711 442.537 263.884C440.922 269.058 452.096 268.878 454.518 267.584C456.941 266.291 466.03 260.937 466.03 260.937C466.03 260.937 483.721 271.645 486.951 277.481C490.182 283.316 496.642 310.463 497.449 315.637C498.257 320.811 495.027 336.979 495.027 336.979C495.027 336.979 479.683 314.99 472.491 308.523C465.298 302.056 454.725 298.176 446.649 298.176C438.574 298.176 432.921 305.289 439.382 308.523C445.842 311.757 453.11 315.637 454.725 320.164C456.34 324.691 472.491 347.988 474.106 356.395C475.721 364.803 487.026 381.617 497.524 386.791C508.023 391.965 546.803 398.432 554.071 404.268C561.339 410.103 612.158 505.5 612.158 505.5M499.872 253.492H512.811L526.54 274.849L499.872 253.492Z" fill="white"/>
<path d="M757.5 505.5C757.5 505.5 646.882 408.163 641.229 396.537C635.576 384.911 637.191 382.309 632.346 373.977C627.501 365.645 612.965 351.252 612.158 340.889C611.35 330.527 604.89 305.951 604.89 297.544C604.89 289.137 602.467 276.849 599.256 274.909C596.044 272.969 578.241 269.72 578.241 269.72C578.241 269.72 568.55 245.145 561.339 243.851C554.127 242.558 539.46 248.98 539.46 248.98C539.46 248.98 536.23 244.468 532.192 237.339C528.155 230.21 520.924 230.225 512.004 232.827C503.083 235.429 485.336 241.234 485.336 241.234C485.336 241.234 465.148 228.946 458.687 236.722C452.227 244.498 444.152 258.711 442.537 263.884C440.922 269.058 452.096 268.878 454.518 267.584C456.941 266.291 466.03 260.937 466.03 260.937C466.03 260.937 483.721 271.645 486.951 277.481C490.182 283.316 496.642 310.463 497.449 315.637C498.257 320.811 495.027 336.979 495.027 336.979C495.027 336.979 479.683 314.99 472.491 308.523C465.298 302.056 454.725 298.176 446.649 298.176C438.574 298.176 432.921 305.289 439.382 308.523C445.842 311.757 453.11 315.637 454.725 320.164C456.34 324.691 472.491 347.988 474.106 356.395C475.721 364.803 487.026 381.617 497.524 386.791C508.023 391.965 546.803 398.432 554.071 404.268C561.339 410.103 612.158 505.5 612.158 505.5M499.872 253.492H512.811L526.54 274.849L499.872 253.492Z" stroke="#263238" stroke-linecap="round" stroke-linejoin="round"/>
<path d="M602.429 306.809C602.429 306.809 593.039 285.753 582.128 289.874C571.217 293.994 569.433 295.98 569.433 295.98C569.433 295.98 563.499 288.46 553.357 291.227C543.216 293.994 539.817 288.52 539.817 288.52C539.817 288.52 526.277 281.752 517.826 287.166C509.375 292.581 516.135 307.485 519.516 319.683C522.896 331.88 515.29 355.598 513.6 357.629C511.91 359.659 489.055 351.538 486.519 358.982C483.984 366.427 494.125 382.7 514.445 388.115C534.765 393.529 549.977 396.251 557.639 402.343C565.301 408.434 584.72 452.486 601.641 455.87C618.561 459.254 637.172 439.612 654.938 440.965C672.704 442.319 695.541 452.486 686.245 443.673C676.949 434.859 638.018 403.065 635.539 391.514C633.06 379.963 623.688 371.857 619.463 366.442C615.237 361.028 607.594 328.496 604.965 319.668C603.588 315.46 602.739 311.152 602.429 306.809Z" fill="#01C38E"/>
<path opacity="0.4" d="M602.429 306.809C602.429 306.809 593.039 285.753 582.128 289.874C571.217 293.994 569.433 295.98 569.433 295.98C569.433 295.98 563.499 288.46 553.357 291.227C543.216 293.994 539.817 288.52 539.817 288.52C539.817 288.52 526.277 281.752 517.826 287.166C509.375 292.581 516.135 307.485 519.516 319.683C522.896 331.88 515.29 355.598 513.6 357.629C511.91 359.659 489.055 351.538 486.519 358.982C483.984 366.427 494.125 382.7 514.445 388.115C534.765 393.529 549.977 396.251 557.639 402.343C565.301 408.434 584.72 452.486 601.641 455.87C618.561 459.254 637.172 439.612 654.938 440.965C672.704 442.319 695.541 452.486 686.245 443.673C676.949 434.859 638.018 403.065 635.539 391.514C633.06 379.963 623.688 371.857 619.463 366.442C615.237 361.028 607.594 328.496 604.965 319.668C603.588 315.46 602.739 311.152 602.429 306.809Z" fill="white"/>
<path d="M539.46 248.98L550.728 265.794C550.728 265.794 555.329 274.623 559.987 278.338C564.644 282.053 568.701 284.85 570.447 289.513C572.194 294.175 572.757 296.491 572.757 296.491" fill="white"/>
<path d="M539.46 248.98L550.728 265.794C550.728 265.794 555.329 274.623 559.987 278.338C564.644 282.053 568.701 284.85 570.447 289.513C572.194 294.175 572.757 296.491 572.757 296.491" stroke="#263238" stroke-linecap="round" stroke-linejoin="round"/>
<path d="M578.222 269.72L589.546 288.49" stroke="#263238" stroke-linecap="round" stroke-linejoin="round"/>
<path d="M485.336 241.264L499.872 253.552" stroke="#263238" stroke-linecap="round" stroke-linejoin="round"/>
<path d="M592.57 292.806C592.817 296.714 593.401 300.604 594.317 304.447Z" fill="white"/>
<path d="M592.57 292.806C592.817 296.714 593.401 300.604 594.317 304.447" stroke="#263238" stroke-linecap="round" stroke-linejoin="round"/>
<path d="M534.465 282.068C534.465 282.068 541.432 286.249 542.596 291.829Z" fill="white"/>
<path d="M534.465 282.068C534.465 282.068 541.432 286.249 542.596 291.829" stroke="#263238" stroke-linecap="round" stroke-linejoin="round"/>
<path d="M466.03 261.012C466.03 261.012 459.645 258.966 459.645 254.875Z" fill="white"/>
<path d="M466.03 261.012C466.03 261.012 459.645 258.966 459.645 254.875" stroke="#263238" stroke-linecap="round" stroke-linejoin="round"/>
<path d="M512.811 253.492C512.811 253.492 508.192 250.649 508.192 247.07Z" fill="white"/>
<path d="M512.811 253.492C512.811 253.492 508.192 250.649 508.192 247.07" stroke="#263238" stroke-linecap="round" stroke-linejoin="round"/>
</svg>
